<?xml version="1.0" encoding="UTF-8" standalone="no"?>
<svg
   width="120"
   height="64"
   version="1.1"
   id="svg3"
   sodipodi:docname="button_rectangle.svg"
   xmlns:inkscape="http://www.inkscape.org/namespaces/inkscape"
   xmlns:sodipodi="http://sodipodi.sourceforge.net/DTD/sodipodi-0.dtd"
   xmlns="http://www.w3.org/2000/svg"
   xmlns:svg="http://www.w3.org/2000/svg">
  <sodipodi:namedview
     id="namedview3"
     pagecolor="#ffffff"
     bordercolor="#000000"
     borderopacity="0.25"
     inkscape:showpageshadow="2"
     inkscape:pageopacity="0.0"
     inkscape:pagecheckerboard="0"
     inkscape:deskcolor="#d1d1d1" />
  <defs
     id="defs1" />
  <g
     id="g3">
    <path
       stroke="none"
       fill="#ffffff"
       d="M 6,4 C 4.9,4 4.2666667,4.4333333 4.1,5.3 L 4.05,5.5 4,6 v 52 c 0,1.333333 0.6666667,2 2,2 H 27.45 28 83.725 84.275 114 c 1.33333,0 2,-0.666667 2,-2 V 6 L 115.95,5.3 116,5.35 C 115.76667,4.45 115.1,4 114,4 H 6 M 6,62 C 3.3333333,62 2,60.666667 2,58 V 6 L 2.1,5.05 C 2.3666667,3.0166667 3.6666667,2 6,2 h 108 c 2.33333,0 3.65,1.0166667 3.95,3.05 L 118,6 v 52 c 0,2.666667 -1.33333,4 -4,4 H 6"
       id="path1"
       sodipodi:nodetypes="ccccssccccsscccsccsccssccssc" />
    <path
       stroke="none"
       fill="#dadce7"
       d="m 6,4 h 108 c 1.1,0 1.76667,0.45 2,1.35 L 115.95,5.3 116,6 v 52 c 0,1.333333 -0.66667,2 -2,2 H 84.275 83.725 28 27.45 6 C 4.6666667,60 4,59.333333 4,58 V 6 L 4.05,5.5 4.1,5.3 C 4.2666667,4.4333333 4.9,4 6,4 m 106,6 C 112,9.4333333 111.8,8.95 111.4,8.55 111.03333,8.1833333 110.56667,8 110,8 c -0.56667,0 -1.03333,0.1833333 -1.4,0.55 -0.4,0.4 -0.6,0.8833333 -0.6,1.45 0,0.566667 0.2,1.033333 0.6,1.4 0.36667,0.4 0.83333,0.6 1.4,0.6 0.56667,0 1.03333,-0.2 1.4,-0.6 0.4,-0.366667 0.6,-0.833333 0.6,-1.4 M 12,54 C 12,53.433333 11.8,52.95 11.4,52.55 11.033333,52.183333 10.566667,52 10,52 9.4333333,52 8.9666667,52.183333 8.6,52.55 8.2,52.95 8,53.433333 8,54 c 0,0.566667 0.2,1.033333 0.6,1.4 0.3666667,0.4 0.8333333,0.6 1.4,0.6 0.566667,0 1.033333,-0.2 1.4,-0.6 C 11.8,55.033333 12,54.566667 12,54 M 12,10 C 12,9.4333333 11.8,8.95 11.4,8.55 11.033333,8.1833333 10.566667,8 10,8 9.4333333,8 8.9666667,8.1833333 8.6,8.55 8.2,8.95 8,9.4333333 8,10 c 0,0.566667 0.2,1.033333 0.6,1.4 0.3666667,0.4 0.8333333,0.6 1.4,0.6 0.566667,0 1.033333,-0.2 1.4,-0.6 C 11.8,11.033333 12,10.566667 12,10 m 100,44 c 0,-0.566667 -0.2,-1.05 -0.6,-1.45 C 111.03333,52.183333 110.56667,52 110,52 c -0.56667,0 -1.03333,0.183333 -1.4,0.55 -0.4,0.4 -0.6,0.883333 -0.6,1.45 0,0.566667 0.2,1.033333 0.6,1.4 0.36667,0.4 0.83333,0.6 1.4,0.6 0.56667,0 1.03333,-0.2 1.4,-0.6 0.4,-0.366667 0.6,-0.833333 0.6,-1.4"
       id="path2"
       sodipodi:nodetypes="cscccssccccsscccccsssscscccsssscscccsssscscccsssscscc" />
    <path
       stroke="none"
       fill="#9696a3"
       d="m 112,54 c 0,0.566667 -0.2,1.033333 -0.6,1.4 -0.36667,0.4 -0.83333,0.6 -1.4,0.6 -0.56667,0 -1.03333,-0.2 -1.4,-0.6 -0.4,-0.366667 -0.6,-0.833333 -0.6,-1.4 0,-0.566667 0.2,-1.05 0.6,-1.45 0.36667,-0.366667 0.83333,-0.55 1.4,-0.55 0.56667,0 1.03333,0.183333 1.4,0.55 0.4,0.4 0.6,0.883333 0.6,1.45 M 6,62 h 108 c 2.66667,0 4,-1.333333 4,-4 V 6 L 117.95,5.05 C 117.65,3.0166667 116.33333,2 114,2 H 6 C 3.6666667,2 2.3666667,3.0166667 2.1,5.05 L 2,6 v 52 c 0,2.666667 1.3333333,4 4,4 M 112,10 c 0,0.566667 -0.2,1.033333 -0.6,1.4 -0.36667,0.4 -0.83333,0.6 -1.4,0.6 -0.56667,0 -1.03333,-0.2 -1.4,-0.6 C 108.2,11.033333 108,10.566667 108,10 108,9.4333333 108.2,8.95 108.6,8.55 108.96667,8.1833333 109.43333,8 110,8 c 0.56667,0 1.03333,0.1833333 1.4,0.55 0.4,0.4 0.6,0.8833333 0.6,1.45 M 0,58.25 V 6 C 0,2 2,0 6,0 h 108 c 4,0 6,2 6,6 V 58.25 C 119.9,62.083333 117.9,64 114,64 H 6 C 2.1,64 0.1,62.083333 0,58.25 M 12,10 c 0,0.566667 -0.2,1.033333 -0.6,1.4 C 11.033333,11.8 10.566667,12 10,12 9.4333333,12 8.9666667,11.8 8.6,11.4 8.2,11.033333 8,10.566667 8,10 8,9.4333333 8.2,8.95 8.6,8.55 8.9666667,8.1833333 9.4333333,8 10,8 10.566667,8 11.033333,8.1833333 11.4,8.55 11.8,8.95 12,9.4333333 12,10 m 0,44 c 0,0.566667 -0.2,1.033333 -0.6,1.4 C 11.033333,55.8 10.566667,56 10,56 9.4333333,56 8.9666667,55.8 8.6,55.4 8.2,55.033333 8,54.566667 8,54 8,53.433333 8.2,52.95 8.6,52.55 8.9666667,52.183333 9.4333333,52 10,52 c 0.566667,0 1.033333,0.183333 1.4,0.55 0.4,0.4 0.6,0.883333 0.6,1.45"
       id="path3"
       sodipodi:nodetypes="ccscssssccssccssccscccscssssccsssscsscccscsssscccscssssc" />
  </g>
</svg>
